<?xml version="1.0" standalone="no"?>
<!DOCTYPE svg PUBLIC "-//W3C//DTD SVG 20010904//EN"
 "http://www.w3.org/TR/2001/REC-SVG-20010904/DTD/svg10.dtd">
<svg version="1.0" xmlns="http://www.w3.org/2000/svg"
 width="155.000000pt" height="140.000000pt" viewBox="0 0 155.000000 140.000000"
 preserveAspectRatio="xMidYMid meet">

<g transform="translate(0.000000,140.000000) scale(0.100000,-0.100000)"
fill="#000000" stroke="none">
<path d="M317 1102 c-15 -16 -17 -48 -17 -239 0 -199 2 -221 18 -236 15 -13
46 -17 171 -19 l153 -3 30 -80 c17 -44 35 -86 41 -92 15 -20 456 -18 483 1 18
14 19 28 19 239 0 175 -3 228 -14 240 -12 15 -38 17 -187 17 l-174 0 -47 95
-48 95 -206 0 c-187 0 -207 -2 -222 -18z m490 -232 c50 -107 92 -198 93 -203
0 -4 -123 -6 -272 -5 l-273 3 -3 190 c-1 104 0 195 3 202 3 11 43 13 182 11
l177 -3 93 -195z m353 -195 l0 -205 -177 0 -178 1 83 77 c45 42 82 82 82 88 0
7 -22 60 -50 119 -27 59 -50 111 -50 116 0 5 65 9 145 9 l145 0 0 -205z m-345
-120 c-33 -30 -63 -54 -67 -55 -7 0 -28 43 -42 88 -7 21 -5 22 81 22 l88 0
-60 -55z"/>
</g>
</svg>
